<svg xmlns="http://www.w3.org/2000/svg" viewBox="0 0 720 320" font-family="Segoe UI, Helvetica, Arial, sans-serif"><rect width="720" height="320" fill="#ffffff"/><text x="56" y="28" font-size="17" font-weight="700" fill="#1f2937">Total monthly residual (GBP)</text><line x1="56" y1="276.0" x2="696" y2="276.0" stroke="#e5e7eb"/><text x="48" y="280.0" font-size="11" text-anchor="end" fill="#6b7280">&#163;0k</text><line x1="56" y1="219.0" x2="696" y2="219.0" stroke="#e5e7eb"/><text x="48" y="223.0" font-size="11" text-anchor="end" fill="#6b7280">&#163;19k</text><line x1="56" y1="162.0" x2="696" y2="162.0" stroke="#e5e7eb"/><text x="48" y="166.0" font-size="11" text-anchor="end" fill="#6b7280">&#163;39k</text><line x1="56" y1="105.0" x2="696" y2="105.0" stroke="#e5e7eb"/><text x="48" y="109.0" font-size="11" text-anchor="end" fill="#6b7280">&#163;58k</text><line x1="56" y1="48.0" x2="696" y2="48.0" stroke="#e5e7eb"/><text x="48" y="52.0" font-size="11" text-anchor="end" fill="#6b7280">&#163;78k</text><polygon points="56,276 56.0,71.3 109.3,68.7 162.7,74.7 216.0,71.6 269.3,74.4 322.7,78.0 376.0,80.0 429.3,79.3 482.7,85.3 536.0,80.5 589.3,79.1 642.7,89.8 696.0,81.8 696,276" fill="#2563eb" opacity="0.08"/><polyline points="56.0,71.3 109.3,68.7 162.7,74.7 216.0,71.6 269.3,74.4 322.7,78.0 376.0,80.0 429.3,79.3 482.7,85.3 536.0,80.5 589.3,79.1 642.7,89.8 696.0,81.8" fill="none" stroke="#2563eb" stroke-width="2.5"/><circle cx="56.0" cy="71.3" r="3" fill="#2563eb"/><text x="56.0" y="294" font-size="10" text-anchor="middle" fill="#6b7280">Jun-25</text><circle cx="109.3" cy="68.7" r="3" fill="#2563eb"/><circle cx="162.7" cy="74.7" r="3" fill="#2563eb"/><text x="162.7" y="294" font-size="10" text-anchor="middle" fill="#6b7280">Aug-25</text><circle cx="216.0" cy="71.6" r="3" fill="#2563eb"/><circle cx="269.3" cy="74.4" r="3" fill="#2563eb"/><text x="269.3" y="294" font-size="10" text-anchor="middle" fill="#6b7280">Oct-25</text><circle cx="322.7" cy="78.0" r="3" fill="#2563eb"/><circle cx="376.0" cy="80.0" r="3" fill="#2563eb"/><text x="376.0" y="294" font-size="10" text-anchor="middle" fill="#6b7280">Dec-25</text><circle cx="429.3" cy="79.3" r="3" fill="#2563eb"/><circle cx="482.7" cy="85.3" r="3" fill="#2563eb"/><text x="482.7" y="294" font-size="10" text-anchor="middle" fill="#6b7280">Feb-26</text><circle cx="536.0" cy="80.5" r="3" fill="#2563eb"/><circle cx="589.3" cy="79.1" r="3" fill="#2563eb"/><text x="589.3" y="294" font-size="10" text-anchor="middle" fill="#6b7280">Apr-26</text><circle cx="642.7" cy="89.8" r="3" fill="#2563eb"/><circle cx="696.0" cy="81.8" r="3" fill="#2563eb"/><text x="696.0" y="294" font-size="10" text-anchor="middle" fill="#6b7280">Jun-26</text></svg>
