<svg xmlns="http://www.w3.org/2000/svg" viewBox="0 0 720 368" font-family="Segoe UI, Helvetica, Arial, sans-serif"><rect width="720" height="368" fill="#ffffff"/><text x="16" y="28" font-size="17" font-weight="700" fill="#1f2937">Biggest risers and fallers (monthly change)</text><text x="210" y="67" font-size="12" text-anchor="end" fill="#1f2937">Quay Leisure (#1012)</text><rect x="226" y="56" width="404.0" height="16" rx="3" fill="#16a34a" opacity="0.85"/><text x="638.0" y="68" font-size="11" fill="#16a34a" font-weight="600">+&#163;2,531</text><text x="210" y="97" font-size="12" text-anchor="end" fill="#1f2937">Coastal Motors (#1001)</text><rect x="226" y="86" width="217.1" height="16" rx="3" fill="#16a34a" opacity="0.85"/><text x="451.1" y="98" font-size="11" fill="#16a34a" font-weight="600">+&#163;1,360</text><text x="210" y="127" font-size="12" text-anchor="end" fill="#1f2937">Maple Wholesale (#1004)</text><rect x="226" y="116" width="167.6" height="16" rx="3" fill="#16a34a" opacity="0.85"/><text x="401.6" y="128" font-size="11" fill="#16a34a" font-weight="600">+&#163;1,050</text><text x="210" y="157" font-size="12" text-anchor="end" fill="#1f2937">Maple Trading (#1016)</text><rect x="226" y="146" width="111.9" height="16" rx="3" fill="#16a34a" opacity="0.85"/><text x="345.9" y="158" font-size="11" fill="#16a34a" font-weight="600">+&#163;701</text><text x="210" y="187" font-size="12" text-anchor="end" fill="#1f2937">Quay Logistics (#1009)</text><rect x="226" y="176" width="102.4" height="16" rx="3" fill="#16a34a" opacity="0.85"/><text x="336.4" y="188" font-size="11" fill="#16a34a" font-weight="600">+&#163;641</text><text x="210" y="217" font-size="12" text-anchor="end" fill="#1f2937">Willow Leisure (#1025)</text><rect x="226" y="206" width="292.5" height="16" rx="3" fill="#dc2626" opacity="0.85"/><text x="526.5" y="218" font-size="11" fill="#dc2626" font-weight="600">−&#163;1,833</text><text x="210" y="247" font-size="12" text-anchor="end" fill="#1f2937">Halcyon Motors (#1023)</text><rect x="226" y="236" width="248.3" height="16" rx="3" fill="#dc2626" opacity="0.85"/><text x="482.3" y="248" font-size="11" fill="#dc2626" font-weight="600">−&#163;1,556</text><text x="210" y="277" font-size="12" text-anchor="end" fill="#1f2937">Oakwood Motors (#1011)</text><rect x="226" y="266" width="228.6" height="16" rx="3" fill="#dc2626" opacity="0.85"/><text x="462.6" y="278" font-size="11" fill="#dc2626" font-weight="600">−&#163;1,432</text><text x="210" y="307" font-size="12" text-anchor="end" fill="#1f2937">Riverside Logistics (#1018)</text><rect x="226" y="296" width="204.0" height="16" rx="3" fill="#dc2626" opacity="0.85"/><text x="438.0" y="308" font-size="11" fill="#dc2626" font-weight="600">−&#163;1,278</text><text x="210" y="337" font-size="12" text-anchor="end" fill="#1f2937">Harbour Retail (#1026)</text><rect x="226" y="326" width="199.7" height="16" rx="3" fill="#dc2626" opacity="0.85"/><text x="433.7" y="338" font-size="11" fill="#dc2626" font-weight="600">−&#163;1,251</text></svg>
